<svg xmlns="http://www.w3.org/2000/svg" viewBox="0 0 22 20">
  <g id="heart" transform="translate(0 -28.501)">
    <path id="Path_5" data-name="Path 5" d="M20.223,30.358a5.951,5.951,0,0,0-8.614,0l-.6.622-.611-.632a5.945,5.945,0,0,0-8.614-.01,6.446,6.446,0,0,0,.009,8.908l8.759,9.057a.611.611,0,0,0,.886,0l8.778-9.043a6.464,6.464,0,0,0,.009-8.912Zm-.9,7.991-8.335,8.585-8.316-8.6a5.116,5.116,0,0,1,0-7.065,4.719,4.719,0,0,1,6.833,0l1.054,1.09a.613.613,0,0,0,.891,0l1.045-1.08a4.719,4.719,0,0,1,6.833,0,5.128,5.128,0,0,1,0,7.07Z" transform="translate(0 0)"/>
  </g>
</svg>
