<svg xmlns="http://www.w3.org/2000/svg" viewBox="0 0 16 20">
  <g id="shopping-bag" transform="translate(-48.55 0)">
    <path id="Path_6" data-name="Path 6" d="M64.55,17.334,63.4,4.364a.493.493,0,0,0-.5-.451H60.471a3.921,3.921,0,0,0-7.842,0H50.2a.5.5,0,0,0-.5.451L48.55,17.334v.046A2.812,2.812,0,0,0,51.514,20H61.586a2.812,2.812,0,0,0,2.964-2.621Zm-8-16.34a2.929,2.929,0,0,1,2.926,2.919H53.624A2.929,2.929,0,0,1,56.55.994ZM61.586,19H51.514A1.828,1.828,0,0,1,49.545,17.4l1.111-12.49h1.973V6.649a.5.5,0,0,0,.995,0V4.906h5.853V6.649a.5.5,0,0,0,.995,0V4.906h1.973L63.555,17.4A1.828,1.828,0,0,1,61.586,19Z" transform="translate(0)"/>
  </g>
</svg>
